# xmcd CD database file
#
# Track frame offsets:
#	150
#	17403
#	44234
#	62717
#	80162
#	102500
#	121559
#	141958
#	164248
#	190089
#
# Disc length: 2770 seconds
#
# Revision: 0
# Processed by: cddbd v1.5.1PL0 Copyright (c) Steve Scherf et al.
# Submitted via: CDex 1.51
#
DISCID=8e0ad00a
DTITLE=Auvi - Auvi
DYEAR=1900
DGENRE=Ballad
TTITLE0=True Colors
TTITLE1=Harbor Lights
TTITLE2=Time And Tide
TTITLE3=Aimost Paradise
TTITLE4=I Won't Hold You Back
TTITLE5=We Are All Alone
TTITLE6=After The Love Is Gone
TTITLE7=Shower Me With Your Love
TTITLE8=Baby Come To Me
TTITLE9=Eternal Flame
EXTD=
EXTT0=
EXTT1=
EXTT2=
EXTT3=
EXTT4=
EXTT5=
EXTT6=
EXTT7=
EXTT8=
EXTT9=
PLAYORDER=
